<svg xmlns="http://www.w3.org/2000/svg" viewBox="0 0 1024 1024" width="1024" height="1024">
  <!-- Background Elements for Depth -->
  <rect x="140" y="140" width="744" height="744" rx="160" fill="none" stroke="#6366f1" stroke-width="48" opacity="0.4" id="rect_0_glis7"></rect>

  <!-- Main Clone Layer (Back) -->
  <rect x="222" y="222" width="744" height="744" rx="160" fill="#a5b4fc" stroke="#1a1a2e" stroke-width="48" id="rect_1_glis7"></rect>

  <!-- Main Clone Layer (Front) -->
  <rect x="140" y="140" width="744" height="744" rx="160" fill="#6366f1" stroke="#1a1a2e" stroke-width="48" id="rect_2_glis7"></rect>

  <!-- Central Nova Star -->
  <path d="M512 289 L557 438 L705 482 L557 527 L512 676 L467 527 L319 482 L467 438 Z" fill="#ffffff" stroke="#1b148e" stroke-width="36" stroke-linejoin="round" id="path_3_glis7"></path>

  <!-- Accent Stars (Nova Effect) -->
  <!-- Top Right -->
  <path d="M860 77 L888 147 L958 175 L888 203 L860 273 L832 203 L762 175 L832 147 Z" fill="#ffffff" stroke="#1b148e" stroke-width="28" stroke-linejoin="round" id="path_4_glis7"></path>

  <!-- Bottom Left -->
  <path d="M160 810 L181 859 L230 880 L181 901 L160 950 L139 901 L90 880 L139 859 Z" fill="#ffffff" stroke="#1b148e" stroke-width="28" stroke-linejoin="round" id="path_5_glis7"></path>

  <!-- Small Sparkle Stars -->
  <path d="M880 712 L896 744 L928 760 L896 776 L880 808 L864 776 L832 760 L864 744 Z" fill="#ffffff" stroke="#1b148e" stroke-width="20" stroke-linejoin="round" id="circle_6_glis7"></path>
  <path d="M110 82 L119 101 L138 110 L119 119 L110 138 L101 119 L82 110 L101 101 Z" fill="#ffffff" stroke="#1b148e" stroke-width="14" stroke-linejoin="round" id="circle_7_glis7"></path>
</svg>